<svg xmlns="http://www.w3.org/2000/svg" viewBox="0 0 2667.67 734.69"><g id="Warstwa_2" data-name="Warstwa 2"><g id="Warstwa_1-2" data-name="Warstwa 1"><g id="_2RJeCo.tif" data-name="2RJeCo.tif"><path d="M321.59,734.69c-5.17-1.07-10.56-1.54-15.45-3.35-10.09-3.74-20.47-7.22-29.74-12.51Q166.6,656.1,57.19,592.69C25.29,574.3,6.62,546.82,1.07,510.51a115.09,115.09,0,0,1-1-17.42Q0,368.5,0,243.92c0-19.77,5.52-37.37,21.91-49.6,20-14.92,41.38-15.86,63.13-3.66q64.17,36,128.21,72.2,46.07,26,92.14,51.9c18.49,10.44,36.95,10.57,55.49.16q87.86-49.31,175.76-98.55c9.7-5.42,15.52-13.21,15.63-24.28.11-11.29-5.73-19.22-15.53-24.85q-87.58-50.36-175-101c-19.13-11.08-38.07-11.15-57.16,0Q279.4,80.91,254,95.31a6.12,6.12,0,0,0-3.56,5.8c-1.39,27.65-24.55,51.28-50.91,53.45-34.17,2.8-58.35-21.95-62-47.13-3.26-22.34,3.73-40.9,21.55-54.6s37.39-15.46,57.87-6.71c3.19,1.37,5.36,1.2,8.2-.46,17.38-10.15,34.71-20.37,52.31-30.11,37.17-20.58,74.77-21,111.64.17,87.3,50,174.29,100.52,261.42,150.81,10.34,6,16.28,14.5,16,26.73-.3,11.79-6.37,19.79-16.44,25.43-87.32,48.92-174.48,98.13-261.94,146.8-36.38,20.25-73.51,20.09-109.93-.18C218.6,332.16,159.3,298.55,99.92,265.06c-7.44-4.2-15-6.11-23.39-3.41a26.92,26.92,0,0,0-18.84,25.53c0,70.07-.28,140.15.14,210.22.12,19.73,9.9,34.83,27.1,44.78q58.72,34,117.52,67.81,51.23,29.52,102.43,59c19,11,37.8,10.9,56.75,0q93.51-54,187.09-108c2.46-1.42,3.79-2.85,4.14-6,3-27,20.43-46.12,46.67-51.54,33-6.8,66.5,20.14,66.93,53.75.41,32.42-21.94,56.88-54.39,59.14a50.2,50.2,0,0,1-27-5.68c-3.06-1.61-5.27-1.32-8.1.32q-91.74,53.1-183.55,106.11c-14.69,8.53-30,15-47,16.77a6.73,6.73,0,0,0-1.8.78Z"/><path d="M326.43,564.87c-18.37-.3-36.08-4.31-52.36-13.42Q212.5,517,151.12,482.21c-14.81-8.39-19.68-25.2-11.79-39.37s25.09-19,40.13-10.58q59.17,33.12,118.16,66.57c19.35,11,38.28,11.05,57.7.1C444.07,448.89,533,399.15,621.66,349c16.64-9.42,33.5-2.74,40.67,9,8.6,14.14,4,31.8-11,40.36-23.67,13.51-47.49,26.77-71.24,40.13q-98.67,55.47-197.3,111A116.35,116.35,0,0,1,326.43,564.87Z"/><path d="M1511,334.54h-24.69c0-4.4,0-8.34,0-12.28,0-13.49.2-27-.13-40.45a63.6,63.6,0,0,0-2.36-15.18c-1.55-5.64-5.26-7.53-11.09-6.79-8,1-14.52,8.36-14.52,16.31V334h-22.69c0-1.62,0-3.38,0-5.13q-.08-26.22-.17-52.43c0-.66,0-1.33,0-2-.41-9.65-4.19-14.95-10.54-14.78-10.32.27-18.89,7.72-18.89,16.45,0,19.13,0,38.26,0,57.78h-22.9V240.51h22.51l.72,6.47c16.58-9.93,32.77-15.12,47.35,3.72,1.9-1.64,3.83-3.38,5.83-5,8.12-6.7,17.57-8.72,27.65-6.84,12.63,2.35,18.65,11.41,21,23.13a82,82,0,0,1,1.18,15.36c.17,14.15,0,28.3.2,42.44C1509.49,324.79,1510.43,329.8,1511,334.54Z"/><path d="M1739.13,461.91V533H1716V413.22c5.76,0,11.06-.27,16.3.18,1.48.12,3.15,2.1,4.12,3.61q20.86,32.52,41.54,65.15c.87,1.35,1.82,2.65,3.34,4.87V413.55h23.51V533.22c-6,0-11.79.22-17.53-.17-1.33-.08-2.82-2-3.74-3.45q-20.23-30.84-40.33-61.78C1742.18,466.21,1741,464.65,1739.13,461.91Z"/><path d="M2274.44,439.33c5.41,21.73,10.7,43.05,16,64.37l1.15,0q4.71-17.57,9.41-35.14c2.32-8.65,4.52-17.33,7.07-25.92.42-1.42,2.29-3.33,3.58-3.41,6-.37,12-.16,18.24-.16,6.08,22.42,12.1,44.63,18.51,68.3L2365,439.33H2387c-5.22,17.83-10.33,35.31-15.47,52.79-3.52,11.93-7.35,23.77-10.5,35.8-1.17,4.49-3.16,5.84-7.52,5.42a58.71,58.71,0,0,0-11.48,0c-4.74.47-6.9-1.07-8.2-5.94-4.75-17.78-10.07-35.4-15.62-54.58-1,3-1.69,4.67-2.16,6.42-4.43,16.49-8.91,33-13.16,49.52-.9,3.51-2.43,4.82-6.1,4.59-5.14-.33-10.33.09-15.48-.21-1.39-.09-3.56-1.38-3.93-2.57-9.25-30.26-18.31-60.59-27.5-91.24Z"/><path d="M1011,399.43h22.15V442c9.14-4,18-5.92,27.29-4.47,20.15,3.16,34.52,18,36.74,38.35,1.74,16-.41,31.23-11.72,43.89-14.21,15.91-39.56,19.89-58,9-11-6.47-16.68-16.39-16.81-28.81-.35-32.94-.12-65.88-.1-98.83A9,9,0,0,1,1011,399.43ZM1033.13,484h.11c0,5.31-.14,10.63,0,15.94a11.72,11.72,0,0,0,7.76,11.18c11.19,4.38,22.42,2.6,29.13-8.48a35,35,0,0,0,4.56-25.35c-2.26-11.9-8.89-18.5-20.86-18.83-5.34-.15-10.81,2.32-16.12,3.95-3.53,1.1-5,3.66-4.72,7.65C1033.43,474.62,1033.13,479.3,1033.13,484Z"/><path d="M1264.13,493.77c-5.48,5.8-10.49,10.92-15.22,16.28a8.23,8.23,0,0,0-1.61,4.89c-.19,5.81-.07,11.63-.07,17.89h-22.15V404.38H1247v77l1.24.65c1.14-1.3,2.25-2.62,3.43-3.89,11.22-12.08,22.4-24.19,33.74-36.15a8.81,8.81,0,0,1,5.32-2.77c7.65-.3,15.31-.12,24.42-.12L1280,476.24,1319.61,533c-2,.11-3.51.23-5,.26-3.5.08-7.21-.62-10.46.29-9.73,2.75-14.91-1.71-19.62-9.67C1278.45,513.61,1271.17,504.06,1264.13,493.77Z"/><path d="M2144.16,532.74c-9,.59-17.46,1.27-25.9,1.56-1.15,0-2.65-1.63-3.5-2.85-7.69-11.06-15.27-22.19-22.89-33.29-.93-1.35-1.95-2.63-3.14-4.24-5.34,5.65-10.54,11-15.49,16.53-.94,1.06-1.18,3-1.22,4.56-.14,5.8-.06,11.61-.06,17.84h-22.27V404.43h22v78.35c2.13-2.12,3.35-3.27,4.49-4.49,11.23-12.05,22.37-24.19,33.77-36.08a10.88,10.88,0,0,1,6.7-3c7.26-.37,14.55-.14,23.2-.14l-35.2,37.17Z"/><path d="M2093.83,284c2.82-3,4.57-4.94,6.34-6.83,10.65-11.45,21.23-23,32-34.27a10.21,10.21,0,0,1,6.37-2.74c7.28-.34,14.58-.13,23.3-.13l-35.24,37.27c13.21,18.88,26.23,37.49,39.54,56.53a36.25,36.25,0,0,1-3.67.42c-4.83.1-9.87-.75-14.43.38-7.47,1.86-11.33-1-15.1-7.1-6.78-11-14.46-21.47-22.18-32.75-5.59,6-10.94,11.55-16.06,17.33-.82.92-.77,2.78-.79,4.22-.08,5.78,0,11.57,0,17.65H2071.7V205.69h22.13Z"/><path d="M2586.51,404.35h22v41.06c2.14-1.19,3.53-1.94,4.89-2.73,25.18-14.71,52,.2,52.38,29.23.22,16.13.05,32.27.29,48.4.07,4.39,1,8.76,1.55,13.26H2644c-.08-1.74-.22-3.47-.22-5.21,0-15.13.14-30.27-.11-45.4a48.29,48.29,0,0,0-2-13.71c-2.86-9-11.48-12.79-20.44-9.55-8.08,2.93-12.45,9.09-12.45,17.57q0,27.19,0,54.39a5.89,5.89,0,0,1-.4,1.26h-21.87Z"/><path d="M2352,334h-21.7V205.74h21.59v40.83c2.54-1.45,4.35-2.52,6.18-3.54,20.29-11.32,48.94-3,50.84,26.39,1.09,16.91.5,33.92.83,50.88.09,4.72.76,9.43,1.17,14.2H2387v-5.79c0-15.81.1-31.62-.08-47.43a35.74,35.74,0,0,0-1.74-10.72c-3.22-9.67-12.41-13.7-21.6-9.3-7,3.36-12,8.15-11.72,17.19C2352.33,296.87,2352,315.31,2352,334Z"/><path d="M824.58,301.65v32.29H801.72V213.65c13.45-1.44,26.68-2.49,39.9-.3,22.23,3.67,34.84,18.1,35.7,40.58,1.12,29.58-17.67,48.1-48.44,47.72Zm.11-20.55c11.22,1.43,20.48-.72,26.29-10.71,4.66-8,3.76-22.29-1.75-28.83-6.59-7.8-15.39-7.8-24.54-7Z"/><path d="M824.8,500.76v32.07h-23V412.58C819,411,836,408.84,852.58,415.24s23.45,19.63,24.76,36.49c2.49,32-19.45,48.3-46.19,49C829.18,500.8,827.21,500.76,824.8,500.76Zm.06-21.06c10.31,2.37,19.91-.94,25.1-8.44,5.47-7.89,5.72-22.11.13-29.74-6.33-8.62-15.54-8.81-25.23-8.3Z"/><path d="M1740.06,301.66v32.26h-22.78V213.66c13.34-1.49,26.4-2.43,39.49-.38,28.25,4.43,38.32,25.23,35.71,49.81-2.63,24.73-20.84,38.72-47.89,38.57C1743.29,301.65,1742,301.66,1740.06,301.66Zm.28-20.53c11.3,1.37,21-.69,26.17-11,4.77-9.46,4.46-19.45-1.73-28.41-4.5-6.53-15.55-9.17-24.44-6.63Z"/><path d="M1921.24,520.63l-16.63,15.26-8.74-7.77c-13.61,8-28.41,8.41-43.44,3.64s-22.3-17.39-19.32-32.13c1.48-7.34,6.12-12.43,12.07-16.45,12.15-8.2,26-9.59,40.12-9.43,1.5,0,3,.14,4.49.18a3.31,3.31,0,0,0,.94-.26c.93-9.27-4.9-15.84-14.81-16.64a55.07,55.07,0,0,0-34.64,8.67c-.81-6.19-1.7-11.9-2.18-17.63a4.65,4.65,0,0,1,2.12-3.7c16.09-7.34,32.79-9.85,50-4.64,14.24,4.32,22.38,16.13,22.73,32.27.25,10.82.23,21.64,0,32.46C1913.84,511,1915.13,516.63,1921.24,520.63Zm-29.84-19.44a49.69,49.69,0,0,1,0-6c.48-3.91-1.1-5.54-5-5.21-5.13.43-10.42.11-15.34,1.33a27.11,27.11,0,0,0-11.69,5.95c-6,5.68-3.68,14.81,4.38,16.63a54.52,54.52,0,0,0,18.2.77c8.88-1.07,9.41-2.33,9.41-11.5Z"/><path d="M1033.87,321.69c-5,4.61-9.71,9.08-14.65,13.24a4.43,4.43,0,0,1-4.16.06,42,42,0,0,1-5.57-5.13c-6.88,1.9-13.56,4.56-20.48,5.47a50.52,50.52,0,0,1-27.77-4.07c-19.31-8.79-22-33.38-4.9-46,12.88-9.5,27.9-10.8,43.23-10.64,1.29,0,2.59.16,3.89.24.37-9.68-4.7-15.66-13.9-16.65a52.39,52.39,0,0,0-33.45,7.29,22.51,22.51,0,0,1-2.14,1c-.87-6.06-1.84-11.73-2.37-17.44a4.71,4.71,0,0,1,2.3-3.62c16.06-7.52,32.82-9.6,50-4.7,13.35,3.81,22.09,15.74,22.45,29.77.28,11.46.18,22.94.17,34.41C1026.47,311.46,1027.51,317.52,1033.87,321.69Zm-29.54-30.13c-6.08,0-11.47-.63-16.63.19a43.81,43.81,0,0,0-13.88,4.81c-4.32,2.35-5.44,6.93-4.47,11.74.88,4.32,4.09,6.25,8,7.12,8.12,1.78,16.16,1.69,23.85-1.82,1.26-.57,2.89-2.1,2.94-3.25C1004.49,304.25,1004.33,298.13,1004.33,291.56Z"/><path d="M1625.66,321.86c-4.27,3.95-8.75,7.69-12.72,11.9-3,3.18-5.3,2.45-7.83-.2-1.37-1.42-2.7-2.86-4.29-4.54-13.5,7.86-27.78,8.34-42.37,4.16-11.7-3.36-19.45-10.65-21-23.17s4.47-21.39,15-27.41c13.38-7.64,28.07-8.45,43-7.78,1.17-8.6-4.44-15.5-13.53-16.55-12.67-1.48-24.37,1.37-35.85,8.43-.93-6.55-1.91-12.69-2.55-18.87-.08-.76,1.48-2,2.53-2.51,15.76-7.27,32.17-9.38,49-4.85a30.47,30.47,0,0,1,23.07,28.65c.59,12.11.36,24.26.52,36.39C1618.74,314.12,1619.59,316.09,1625.66,321.86Zm-29.44-30.51c-5.42,0-10.31-.64-14.94.17a55.22,55.22,0,0,0-15.37,5c-4.33,2.21-5.62,6.87-4.63,11.67.86,4.2,4,6.32,8,7.22,8.12,1.82,16.15,1.71,23.84-1.71,1.33-.59,2.92-2.41,3-3.74C1596.41,304,1596.22,298,1596.22,291.35Z"/><path d="M2197.19,437.13c28.53,0,47.57,19.31,47.47,48.22s-20.19,49.48-48.6,49.47c-28.71,0-47.86-19.17-47.9-47.91S2168.7,437.17,2197.19,437.13Zm23.81,49.2c0-1.5.09-3,0-4.48-.91-12.62-9.67-22.62-20.84-23.82-14.62-1.58-24.87,5.05-28.29,19a42.47,42.47,0,0,0-.78,14.27c1.72,16.45,18.36,26.88,34.09,21.7C2215.17,509.71,2221.07,499.82,2221,486.33Z"/><path d="M1392.12,474.07c.53-10.16-5-16.32-15-17-11.58-.84-22.47,1.36-32.42,7.57a13.8,13.8,0,0,1-2.07.84c-.8-5.68-1.81-11-2.16-16.45-.1-1.59,1.25-4.18,2.62-4.81,14.92-6.84,30.49-9.23,46.61-5.23,15.83,3.94,25.16,15.8,25.45,32.08.19,10.8.06,21.62.07,32.43,0,9.19.72,11,7,17.43-4.15,3.82-8.59,7.38-12.34,11.55-3.38,3.77-5.85,2.6-8.59-.33-1.13-1.21-2.2-2.47-2.41-2.7-9.5,1.88-18.3,4.92-27.11,5a55.81,55.81,0,0,1-23.48-5.26c-17.6-8.34-19.66-31.61-4.54-43.93,9-7.31,19.68-10.21,31-11C1380.53,473.72,1386.36,474.07,1392.12,474.07Zm.82,27.16c0-11.85,0-11.88-12-11.1a49.34,49.34,0,0,0-8.42,1.06,35.32,35.32,0,0,0-8.37,3.08,11.45,11.45,0,0,0-6.23,12.45c1,5.71,5.34,7.51,10,8.1a60.93,60.93,0,0,0,14.41.08c9.41-1.09,10.56-2.69,10.56-12.17Z"/><path d="M1293.52,286c.13,29.38-19.25,49.5-48,49.8s-48.08-18.72-48.17-47.45c-.09-29.12,19.83-49.87,48-50C1274.88,238.19,1293.39,256.49,1293.52,286Zm-22.89,1.26-.36-.05c0-.83,0-1.67,0-2.5-.81-14.16-9.21-24.24-21.26-25.54-14.51-1.56-24.66,4.82-28,18.62a43.14,43.14,0,0,0-.52,16.18c1.79,12.17,12,20.74,24.09,21.28s21.13-5.92,24.34-17.73A103.15,103.15,0,0,0,1270.63,287.25Z"/><path d="M1854.84,238.32c28.34,0,47.13,19.12,47.15,47.88,0,29.25-20.27,49.81-48.9,49.59s-47.72-19.43-47.55-48.17C1805.72,258.57,1826,238.28,1854.84,238.32ZM1878.42,288c-.09-2.09-.13-3.42-.21-4.74-.77-13.52-9.37-23-21.93-24.15-14.1-1.3-24.11,5.73-27.3,19.67a43.12,43.12,0,0,0-.82,12.32,25.89,25.89,0,0,0,24.16,24.19c13.17.83,22.64-6.58,25.46-20.12A52.57,52.57,0,0,0,1878.42,288Z"/><path d="M898.44,439h22.4c0,2.05,0,4,0,5.86.13,17.14.12,34.28.48,51.42.14,6.69,1.79,13.3,9.1,15.7,7.88,2.59,15.59,1.56,21.8-4.42,1.41-1.35,2.1-4,2.12-6.13.16-18.8.09-37.61.09-56.42v-5.66H977v93.56H954.61c-.11-2.3-.22-4.39-.29-5.82-6.44,2.36-12.7,5.57-19.34,6.9-17.91,3.6-32.53-6.9-35.49-24.85a77.77,77.77,0,0,1-1-11.9c-.13-13-.06-26-.06-38.94C898.43,452,898.44,445.74,898.44,439Z"/><path d="M2482.83,439.08c-16.77,36.84-32.91,73-49.75,108.76-3.76,8-9.93,14.86-15,22.21-1.61,2.32-3.63,2.81-6.44,1.71-6.32-2.48-12.78-4.61-19.62-7a23,23,0,0,1,2.47-2.57c14.79-10.79,22.46-26.36,28.63-42.87.53-1.4,0-3.5-.71-5q-15.3-35.14-30.77-70.2c-.59-1.35-1.13-2.71-2-4.94,8.39,0,16.25-.16,24.1.18,1.07.05,2.36,2.45,3,4,6.09,15.07,12.07,30.18,18.09,45.27.48,1.21,1,2.39,1.8,4.18,6.26-16.89,12.41-33.17,18.26-49.54,1.15-3.21,2.56-4.34,6-4.19C2467.7,439.29,2474.64,439.08,2482.83,439.08Z"/><path d="M2020.1,533H1998c-.25-2.35-.47-4.43-.62-5.87-6.24,2.35-12.17,5.56-18.49,6.78-20.18,3.9-35.8-8.37-36.69-28.92-.73-16.77-.46-33.58-.72-50.38-.08-5.09-.45-10.18-.7-15.5H1964v5.36c0,15.63,0,31.27,0,46.91a52.86,52.86,0,0,0,.66,7.42c.9,6.21,2.89,11.86,9.81,13.58,7.87,1.95,15.31.83,21.25-5.09,1.28-1.27,1.74-3.86,1.75-5.85.13-18.63.08-37.26.08-55.89v-6.16h22.48Z"/><path d="M2042.1,249.38,2035.44,268c-8.79-9.52-19.63-11.48-31.25-10.64-2.73.19-5.87.8-7.93,2.39s-3.85,4.55-3.82,6.9c0,1.95,2.52,5,4.52,5.61,8.06,2.46,16.36,4.12,24.55,6.17,11.85,3,21.2,8.66,23.68,21.86,2.69,14.37-3.66,26.76-17.84,31.68-18.83,6.53-37.62,5-55.87-3-3-1.34-4.52-3.1-3.76-6.93,1.13-5.65,1.37-11.48,2.06-17.83,12.83,10.23,27.09,13.3,42.44,12.12,2.24-.17,5-.6,6.47-2,2-2,4-5.1,4.06-7.75,0-1.91-2.85-5-5-5.6-6.81-2-13.94-2.94-20.83-4.75a62.77,62.77,0,0,1-14-5c-16.87-9.12-18.66-32.41-3.63-44.41C1994.81,234.38,2026.91,235.57,2042.1,249.38Z"/><path d="M1161.61,271.73V334H1139.4V271.87h-12.77v-21.4h11.91c.93-7.77,1.17-15.26,2.8-22.44,5-22.14,19.72-32.83,42.23-31.59,3.92.22,6.07,1.25,5.75,5.84-.41,5.79-.1,11.63-.1,17.47-3.28-.82-6.36-2.14-9.5-2.28-7.56-.35-13.84,3.92-15.93,11.79-1.74,6.59-1.94,13.59-2.9,21h22.44v21.47Z"/><path d="M1064.3,261.14h-13.46v-21h13.32V214.67h22.13v25.19H1111V261h-23.79c0,14.92-.38,29.18.17,43.4.25,6.61,4.36,9.52,11,9.82,6.49.28,12.65-.64,18.69-7,0,8.08.21,14.74-.18,21.37-.07,1.22-2.35,2.78-3.92,3.39-11,4.3-22.4,5.62-33.5.82s-14.67-15-15-26.11c-.45-13.14-.15-26.3-.18-39.45Z"/><path d="M1517.42,468.49c-6.64-8.36-15.17-9.83-23.85-10.33-15.87-.91-25.92,7.53-27,23.33a46.31,46.31,0,0,0,2.36,17.58c3.91,11.68,16.15,17.23,29.9,14.57,7.87-1.51,14.84-4.66,20.77-12.1.67,8.18,1.47,15.23,1.62,22.29,0,1.37-2.27,3.13-3.86,4.15-9.68,6.24-20.61,7.49-31.67,6.6-24.58-2-41.64-18.43-43.32-41-2.08-28.05,11.63-48.83,36.49-54.79,13.32-3.19,26.41-2.26,39,3.71,2.57,1.22,3.65,2.6,3,5.76C1519.36,454.51,1518.62,460.89,1517.42,468.49Z"/><path d="M2301.06,269.25c-8.67-9.36-18.84-10.4-29.34-9.89-11.81.57-20.35,8.89-21.5,21.57a51.39,51.39,0,0,0,1.37,16.75c2.7,10.84,11.35,17.28,22.68,17.51,10.91.21,20.65-2.85,28.78-12.47.69,7.83,1.52,14.64,1.73,21.47,0,1.45-1.85,3.36-3.32,4.4-8.86,6.3-19.17,7.37-29.54,7.1-22.4-.58-39.13-12.49-44.18-32.09-7.61-29.51,6.06-56.85,33.9-63.61,13.05-3.17,26-2.62,38.56,3,3.27,1.46,5,2.92,3.92,7.06C2302.66,256,2302.15,262.09,2301.06,269.25Z"/><path d="M2561.9,468.12c-9.25-9.39-19.88-11-31.14-9.45-11.66,1.64-19,9.78-19.82,21.54a56,56,0,0,0,.33,11.94c1.46,9.92,6.25,17.82,16.35,20.61,12.13,3.35,23.39,1,33-7.53.85-.75,1.53-1.69,3.15-3.5.75,7.78,1.66,14.57,1.85,21.38,0,1.56-2.1,3.61-3.73,4.71-8.95,6.06-19.22,7.16-29.62,6.91-23.29-.54-40.89-14.3-44.72-36.48-6.66-38.54,19.74-65.17,57.64-60.57,5.67.69,11.17,3,16.68,4.74,2.56.82,3.88,2.34,3.16,5.64C2563.69,454.36,2563,460.8,2561.9,468.12Z"/><path d="M1944.88,334.09h-22.24V200.2h22.24Z"/><path d="M918,334.05H895.74V200.11H918Z"/><path d="M1120.7,399.2h22V532.91h-22Z"/><path d="M1518.3,543.73l2.94,1.2c13,5.47,21.75-.07,22-14.3.24-15,.1-29.92.11-44.89,0-15.27,0-30.55,0-46.24h22c.1,1.08.29,2,.28,3-.13,29.25-.14,58.5-.55,87.75a56.46,56.46,0,0,1-2.89,15.57c-4.65,15.11-14.73,21.53-31.16,22-1.29,0-3.35-.91-3.8-1.94C1524.19,558.91,1521.5,551.81,1518.3,543.73Z"/><path d="M1315.44,240.31h21.61c.14,1.87.26,3.47.47,6.33,7.17-8.59,15.78-9.57,25.28-7.53,2.81.6,3.93,1.57,3.65,4.6-.64,6.76-.9,13.55-1.28,19.65-4.21-1.35-8.36-3.79-12.43-3.65s-8.3,2.27-11.5,4.77c-2.19,1.71-3.77,5.54-3.82,8.45-.32,20.25-.17,40.5-.17,61.05h-21.81Z"/><path d="M2202.32,334H2180V240.37h22.34Z"/><path d="M1594.36,439.24h22.26v93.61h-22.26Z"/><path d="M1171.22,439.31h22.3V532.9h-22.3Z"/><path d="M1204.37,407.55,1190.05,427l-20.62-14.85L1184.58,392Z"/><path d="M2213.1,208.58,2198.81,228l-20.67-14.86,15.17-20.1Z"/><path d="M1613.12,427l-20.64-14.91L1607.64,392l19.74,15.5Z"/><path d="M1558.3,426c-6.26-4.49-12.14-8.7-18.48-13.26l13.57-17.88L1571,408.69Z"/></g></g></g></svg>